<svg id="Grupo_26" data-name="Grupo 26" xmlns="http://www.w3.org/2000/svg" width="23.496" height="33.389" viewBox="0 0 23.496 33.389">
  <path id="Trazado_13" data-name="Trazado 13" d="M-265.854-171.2h-14.36a2.344,2.344,0,0,0-2.342,2.341v23.837a2.344,2.344,0,0,0,2.342,2.342h14.36a2.344,2.344,0,0,0,2.341-2.342V-168.86A2.344,2.344,0,0,0-265.854-171.2Zm-1.083,23.913h-12.6v-19.747h12.188v3.662h-7.706v4.1h7.266v3.633h-7.266v4.687h8.115Z" transform="translate(284.782 173.635)" fill="#8bc540"/>
  <path id="Trazado_14" data-name="Trazado 14" d="M-266.191-175.635h-17.345a3.075,3.075,0,0,0-3.076,3.076v27.238a3.075,3.075,0,0,0,3.076,3.076h17.345a3.075,3.075,0,0,0,3.076-3.076v-27.238A3.075,3.075,0,0,0-266.191-175.635Zm1.41,28.613a2.906,2.906,0,0,1-2.9,2.9h-14.36a2.906,2.906,0,0,1-2.9-2.9v-23.837a2.906,2.906,0,0,1,2.9-2.9h14.36a2.906,2.906,0,0,1,2.9,2.9Z" transform="translate(286.611 175.635)" fill="#8bc540"/>
</svg>
