<svg id="Grupo_28" data-name="Grupo 28" xmlns="http://www.w3.org/2000/svg" width="50.465" height="29.131" viewBox="0 0 50.465 29.131">
  <path id="Trazado_15" data-name="Trazado 15" d="M-158.553-143.321a9.777,9.777,0,0,1,3.5.647l2.412-4.745-1-2.3h-.343a1.033,1.033,0,0,1-1.033-1.033,1.033,1.033,0,0,1,1.033-1.033h5.653a1.033,1.033,0,0,1,1.033,1.033,1.033,1.033,0,0,1-1.033,1.033h-3.061l.565,1.308H-136.7c-.111-.179-.235-.365-.374-.55a3.838,3.838,0,0,0-3.064-1.79,1.033,1.033,0,0,1-1.033-1.033,1.033,1.033,0,0,1,1.033-1.033,5.863,5.863,0,0,1,4.717,2.616,10.09,10.09,0,0,1,1.342,2.451l2.019,4.843a9.8,9.8,0,0,1,2.8-.409,9.826,9.826,0,0,1,9.815,9.815,9.778,9.778,0,0,1-.491,3.059,9.043,9.043,0,0,1,2.036,5.723v1.033h-25.37v-2.065h7.252c.021-.189.05-.376.084-.561a9.788,9.788,0,0,1-3.141-7.187,9.824,9.824,0,0,1,5.108-8.61l-1.307-3.137-8.644,12.339-.025.033-.037.046c-.015.018-.032.035-.047.051s-.027.028-.041.04-.036.03-.054.045l-.044.035c-.02.013-.04.026-.061.038l-.046.028c-.022.012-.044.021-.066.032l-.049.021a.757.757,0,0,1-.073.024.453.453,0,0,1-.048.015.827.827,0,0,1-.084.016l-.04.008a1.041,1.041,0,0,1-.128.008h-4.028a9.828,9.828,0,0,1-9.76,8.782,9.826,9.826,0,0,1-9.815-9.815A9.827,9.827,0,0,1-158.553-143.321Zm29.291,2.065a7.728,7.728,0,0,0-2,.263l2.954,7.088a1,1,0,0,1,.054.18,9.106,9.106,0,0,1,1.265-.088,9.032,9.032,0,0,1,5.342,1.743,7.854,7.854,0,0,0,.135-1.437A7.757,7.757,0,0,0-129.262-141.255Zm0,15.5A7.755,7.755,0,0,0-122.357-130a6.992,6.992,0,0,0-4.633-1.75,7.033,7.033,0,0,0-6.611,4.658A7.712,7.712,0,0,0-129.262-125.757Zm9.218,0a6.989,6.989,0,0,0-.9-2.541,9.878,9.878,0,0,1-2.3,2.541Zm-16.967-7.749a7.712,7.712,0,0,0,1.786,4.942,9.141,9.141,0,0,1,4.971-4.641l-2.914-6.99A7.754,7.754,0,0,0-137.011-133.506Zm-11.782-1.032h2.379l-5.107-10.523-1.691,3.328A9.819,9.819,0,0,1-148.793-134.538Zm-5.361-5.343-2.715,5.343h5.995A7.755,7.755,0,0,0-154.154-139.881Zm4.3-6.469,5.247,10.813,7.574-10.813Zm-8.7,20.593a7.759,7.759,0,0,0,7.678-6.717h-7.683a1.032,1.032,0,0,1-1.033-1.033,1.032,1.032,0,0,1,.156-.546l3.441-6.768a7.725,7.725,0,0,0-2.559-.436,7.758,7.758,0,0,0-7.749,7.749A7.758,7.758,0,0,0-158.553-125.757Z" transform="translate(168.367 152.821)" fill="#8bc540"/>
</svg>
