<svg xmlns="http://www.w3.org/2000/svg" width="23.844" height="29.981" viewBox="0 0 23.844 29.981">
  <g id="Grupo_32" data-name="Grupo 32" transform="translate(-0.608 -1.979)">
    <g id="Grupo_34" data-name="Grupo 34">
      <g id="Grupo_29" data-name="Grupo 29" transform="translate(1.363 2.734)">
        <path id="Trazado_18" data-name="Trazado 18" d="M-266.318-11.15A11.167,11.167,0,0,0-277.485.016c0,8.507,10.152,16.689,10.537,17.034a1.015,1.015,0,0,0,1.259,0c.436-.345,10.537-8.527,10.537-17.034A11.167,11.167,0,0,0-266.318-11.15Z" transform="translate(277.485 11.15)" fill="none" stroke="#8bc540" stroke-miterlimit="10" stroke-width="1.51"/>
      </g>
      <path id="Trazado_19" data-name="Trazado 19" d="M-263.051,14.808a2.6,2.6,0,0,0-.31,1.07,1.855,1.855,0,0,0,.017.276l-2.156-3.71a.956.956,0,0,1-.121-.448,1.029,1.029,0,0,1,.121-.466l1.035-1.811-1.156-.725h3.761l1.828,3.3-1.172-.673Zm2.1,2.985A1.8,1.8,0,0,1-262.745,16a2.409,2.409,0,0,1,.294-1.035l.551-.984h3.864v3.813Zm3.044-13.544a2.113,2.113,0,0,0-1.017-.931h4.243a.925.925,0,0,1,.846.449l1.052,1.794,1.139-.673-1.83,3.279h-3.742l1.155-.708Zm-3.633.295a1.8,1.8,0,0,1,2.45-.656,2.423,2.423,0,0,1,.75.772l.575.969L-259.7,8.976-263,7.069l1.458-2.525Zm10.173,9.471a2.092,2.092,0,0,0,1.311-.414l-2.139,3.726a.956.956,0,0,1-.845.465h-2.02v1.329l-1.932-3.226,1.932-3.227v1.347Zm1.628-3.305a1.8,1.8,0,0,1-.657,2.45,2.421,2.421,0,0,1-1.044.264h-1.127l-1.932-3.332,3.3-1.906,1.458,2.525Z" transform="translate(269.743 3.073)" fill="#8bc540"/>
    </g>
  </g>
</svg>
