<svg id="Grupo_33" data-name="Grupo 33" xmlns="http://www.w3.org/2000/svg" width="26.886" height="31.888" viewBox="0 0 26.886 31.888">
  <path id="Trazado_20" data-name="Trazado 20" d="M-182.149-30.066a.938.938,0,0,0-.938.938v2.5a.938.938,0,0,0,.938.938.938.938,0,0,0,.938-.938v-2.5A.938.938,0,0,0-182.149-30.066ZM-190.99-26.4a.936.936,0,0,0-.664.274.94.94,0,0,0,0,1.329l1.768,1.769a.941.941,0,0,0,1.329,0,.94.94,0,0,0,0-1.329l-1.768-1.769A.936.936,0,0,0-190.99-26.4Zm17.683,0a.937.937,0,0,0-.664.274l-1.768,1.769a.94.94,0,0,0,0,1.329.941.941,0,0,0,1.329,0l1.768-1.769a.94.94,0,0,0,0-1.329A.936.936,0,0,0-173.307-26.4Zm-8.841,1.964a8.317,8.317,0,0,0-8.441,8.079,10.346,10.346,0,0,0,2.208,6.331c1.04,1.472,1.856,2.469,1.856,4.035v3.752a2.2,2.2,0,0,0,2.188,2.188h.029a2.2,2.2,0,0,0,2.159,1.876A2.2,2.2,0,0,0-179.99-.054h.029a2.2,2.2,0,0,0,2.188-2.188V-5.994c0-1.566.816-2.563,1.856-4.035a10.346,10.346,0,0,0,2.208-6.331A8.317,8.317,0,0,0-182.149-24.439Zm0,1.876a6.445,6.445,0,0,1,6.565,6.2,8.156,8.156,0,0,1-1.856,5.247,9.959,9.959,0,0,0-2.13,4.181h-5.158a9.962,9.962,0,0,0-2.13-4.181,8.156,8.156,0,0,1-1.856-5.247A6.445,6.445,0,0,1-182.149-22.563Zm-1.475.938a1.526,1.526,0,0,0-.42.049,6.252,6.252,0,0,0-3.947,4.748.98.98,0,0,0,.762,1.094.987.987,0,0,0,1.094-.772,4.366,4.366,0,0,1,2.755-3.322.971.971,0,0,0,.6-1.045A.844.844,0,0,0-183.624-21.625Zm-11.03,4.064a.938.938,0,0,0-.938.938.938.938,0,0,0,.938.938h2.5a.938.938,0,0,0,.938-.938.938.938,0,0,0-.938-.938Zm22.509,0a.938.938,0,0,0-.938.938.938.938,0,0,0,.938.938h2.5a.938.938,0,0,0,.938-.938.938.938,0,0,0-.938-.938ZM-184.65-5.056h5v.625h-5Zm0,2.5h5v.313a.3.3,0,0,1-.313.313h-4.377a.3.3,0,0,1-.313-.313Z" transform="translate(195.592 30.066)" fill="#8bc540"/>
</svg>
