<svg xmlns="http://www.w3.org/2000/svg" width="102.524" height="62.5" viewBox="0 0 102.524 62.5">
  <path id="Trazado_12" data-name="Trazado 12" d="M-631.747-26.713h-46.981v-2.3h38.071v-1.7h-38.071v-19.4l33.905,15.5.926-1.5-34.831-16v-2.7l33.674,15.4.925-1.5-34.6-15.8v-10.1H-680.7v9.2l-6.248-2.9v-18.6h-1.967v17.7l-15.506-7.1h0l-29.855,14.2v6.6l6.6-3.1v25.8h46.98v8.4h1.967v-8.4h46.981Zm-48.948-4h-6.248v-23.2l6.248,2.9Zm0-24.9v2.7l-6.364-2.9v-2.7Zm-8.331-3.8v2.6l-15.506-7v-2.7Zm-31.938,5.4,16.432-7.8h0l15.506,7v24l-31.938.1Zm31.938,25v2.3h-10.53v-2.3Zm1.967,2.3v-2.3h6.364v2.3Z" transform="translate(734.271 79.113)" fill="#8bc540"/>
</svg>
