<svg xmlns="http://www.w3.org/2000/svg" width="55.508" height="53.911" viewBox="0 0 55.508 53.911">
  <g id="Grupo_20" data-name="Grupo 20" transform="translate(841.888 76.687)">
    <path id="Trazado_9" data-name="Trazado 9" d="M-836.427-48.41a6.193,6.193,0,0,0,6.375-3.564l8.236.316a7.794,7.794,0,0,0,2.7,4.6l-5.421,11.893a6.2,6.2,0,0,0-6.7,5.659,6.2,6.2,0,0,0,5.516,6.687,6.2,6.2,0,0,0,6.9-5.418v0a6.19,6.19,0,0,0-1.587-4.926l5.536-12.185c.23,0,.459.04.689.04a7.721,7.721,0,0,0,3.449-.822l8.668,8.484a6.2,6.2,0,0,0,3.561,8.006,6.187,6.187,0,0,0,1.485.368,6.223,6.223,0,0,0,.759.046,6.206,6.206,0,0,0,6.217-6.2,6.206,6.206,0,0,0-6.2-6.217,6.2,6.2,0,0,0-2.7.615l-8.444-8.277a7.715,7.715,0,0,0,.926-2.839,2.418,2.418,0,0,1,.028-.449l9.019-1.195a6.181,6.181,0,0,0,4.081,2.27,6.206,6.206,0,0,0,.758.046,6.207,6.207,0,0,0,6.2-6.218,6.206,6.206,0,0,0-6.218-6.2,6.208,6.208,0,0,0-6.152,5.46v.178l-8.771,1.15a7.764,7.764,0,0,0-4.541-3.449l.4-3.971a6.215,6.215,0,0,0,4.161-7.74,6.214,6.214,0,0,0-7.74-4.161,6.213,6.213,0,0,0-4.161,7.739,6.214,6.214,0,0,0,3.141,3.753l-.459,4.512a7.792,7.792,0,0,0-4.558,4.168l-8.542-.328a6.2,6.2,0,0,0-7.877-3.857,6.2,6.2,0,0,0-3.857,7.878A6.2,6.2,0,0,0-836.427-48.41Zm13.048,19.623a1.61,1.61,0,0,1-1.791,1.405,1.609,1.609,0,0,1-1.405-1.79h0a1.609,1.609,0,0,1,1.592-1.414h.2a1.609,1.609,0,0,1,1.4,1.787Zm26.135-7.921a1.6,1.6,0,0,1,.989-.345h.2a1.611,1.611,0,0,1,1.41,1.788,1.611,1.611,0,0,1-1.788,1.409,1.61,1.61,0,0,1-1.409-1.787,1.607,1.607,0,0,1,.6-1.076Zm3.058-21.169a1.61,1.61,0,0,1,1.592-1.414h.2A1.61,1.61,0,0,1-790.99-57.5a1.61,1.61,0,0,1-1.789,1.408,1.609,1.609,0,0,1-1.408-1.788v.006Zm-20.876-12.772a1.61,1.61,0,0,1,1.592-1.414h.2a1.61,1.61,0,0,1,1.408,1.789,1.61,1.61,0,0,1-1.789,1.408,1.61,1.61,0,0,1-1.408-1.789v.006Zm-2.265,17.192a3.174,3.174,0,0,1,3.53-2.771,3.173,3.173,0,0,1,2.77,3.529,3.172,3.172,0,0,1-3.529,2.771h0A3.172,3.172,0,0,1-817.327-53.457Zm-19.95-1.31a1.607,1.607,0,0,1,1.6-1.414h.2a1.609,1.609,0,0,1,1.408,1.788,1.61,1.61,0,0,1-1.788,1.408,1.609,1.609,0,0,1-1.408-1.788v-.006Z" fill="#8bc540"/>
  </g>
</svg>
