<svg id="Grupo_7" data-name="Grupo 7" xmlns="http://www.w3.org/2000/svg" width="20.572" height="20.555" viewBox="0 0 20.572 20.555">
  <path id="Trazado_4" data-name="Trazado 4" d="M1873.481,2523.555s1.446-11.292-9.4-11.236c-9.457.048-9.512,9.011-9.512,9.011s-.529,3.421,1.669,5.619l.445.723s-1.669,3.393-1.5,3.282,3.338-1.5,3.338-1.5,6.119,4.228,11.737-.5A6.665,6.665,0,0,0,1873.481,2523.555Z" transform="translate(-1853.347 -2511.747)" fill="#589826" fill-rule="evenodd"/>
  <path id="Trazado_5" data-name="Trazado 5" d="M1858.458,2527.561a8.5,8.5,0,0,1-4.666-1.395l-3.254,1.033,1.049-3.133a8.329,8.329,0,0,1-1.617-4.941,6.342,6.342,0,0,1,.051-.809,8.491,8.491,0,0,1,16.906.155c.017.224.017.448.017.654a8.472,8.472,0,0,1-8.487,8.436Zm4.631-6.4c-.258-.121-1.463-.723-1.687-.809-.241-.069-.4-.121-.568.137a12.161,12.161,0,0,1-.775.947c-.155.172-.292.19-.534.069a6.466,6.466,0,0,1-2-1.222,7.283,7.283,0,0,1-1.378-1.687c-.138-.258-.017-.378.1-.516a3.141,3.141,0,0,0,.378-.431.442.442,0,0,0,.086-.1,2.553,2.553,0,0,0,.155-.292.422.422,0,0,0-.017-.431c-.053-.12-.551-1.343-.758-1.824-.206-.5-.412-.414-.551-.414-.155,0-.31-.017-.481-.017a.847.847,0,0,0-.655.31,2.745,2.745,0,0,0-.74,2.875,5.4,5.4,0,0,0,.878,1.7,9.986,9.986,0,0,0,4.217,3.7c2.531.981,2.531.654,2.978.62a2.461,2.461,0,0,0,1.671-1.171,1.959,1.959,0,0,0,.137-1.171c-.052-.086-.224-.155-.465-.275Zm5.458-2.272a10.089,10.089,0,0,0-20.16-.189,3.6,3.6,0,0,0-.017.43,10.016,10.016,0,0,0,1.446,5.182l-1.825,5.372,5.595-1.774a10.124,10.124,0,0,0,14.978-8.78c0-.086-.017-.155-.017-.241Z" transform="translate(-1847.991 -2509.123)" fill="#fdfdfd" fill-rule="evenodd"/>
</svg>
